# xmcd CD database file
#
# Track frame offsets:
#        150
#        13220
#        26184
#        35562
#        46493
#        59758
#        73479
#        85079
#        97101
#        109458
#        121780
#        131824
#        144993
#        156535
#        168403
#        181079
#        191742
#
# Disc length: 2719 seconds
#
# Revision: 0
# Processed by: cddbd v1.5.2PL0 Copyright (c) Steve Scherf et al.
# Submitted via: CUERipper 2.1.6
#
DISCID=060a9d11
DTITLE=Big Mama Thornton - The Essential Recordings
DYEAR=1900
DGENRE=Jazz
TTITLE0=Hound Dog
TTITLE1=Nightmare
TTITLE2=They Call Me Big Mama
TTITLE3=All Right, Baby
TTITLE4=Just Can't Help Myself
TTITLE5=Bad Luck Got My Man
TTITLE6=I'm All Fed Up
TTITLE7=Partnership Blues
TTITLE8=No Jody for Me
TTITLE9=Let Your Tears Fall, Baby
TTITLE10=Hard Times
TTITLE11=Every Time I Think of You
TTITLE12=Mischievous Boogie
TTITLE13=Rock-A-Bye Baby
TTITLE14=Cotton Picking Blues
TTITLE15=I Ain't No Fool, Either
TTITLE16=The Big Change
EXTD=
EXTT0=
EXTT1=
EXTT2=
EXTT3=
EXTT4=
EXTT5=
EXTT6=
EXTT7=
EXTT8=
EXTT9=
EXTT10=
EXTT11=
EXTT12=
EXTT13=
EXTT14=
EXTT15=
EXTT16=
PLAYORDER=
